<svg width="108" height="79" viewBox="0 0 108 79" fill="none" xmlns="http://www.w3.org/2000/svg">
<path d="M38.7942 32.723C42.8231 34.6593 45.9422 37.4992 48.1516 41.2426C50.361 44.857 51.4657 49.1814 51.4657 54.2157C51.4657 61.7026 49.0614 67.7051 44.2527 72.223C39.444 76.741 33.2708 79 25.7329 79C18.1949 79 12.0217 76.741 7.213 72.223C2.40433 67.7051 0 61.7026 0 54.2157C0 50.8595 0.454874 47.5033 1.36462 44.1471C2.27437 40.7909 4.35379 35.692 7.60289 28.8505L21.2491 0H48.5415L38.7942 32.723ZM95.3285 32.723C99.3574 34.6593 102.477 37.4992 104.686 41.2426C106.895 44.857 108 49.1814 108 54.2157C108 61.7026 105.596 67.7051 100.787 72.223C95.9783 76.741 89.8051 79 82.2672 79C74.7292 79 68.556 76.741 63.7473 72.223C58.9386 67.7051 56.5343 61.7026 56.5343 54.2157C56.5343 50.8595 56.9892 47.5033 57.8989 44.1471C58.8087 40.7909 60.8881 35.692 64.1372 28.8505L77.7834 0H105.076L95.3285 32.723Z" fill="#FCB61C"/>
</svg>
