<svg width="128" height="128" viewBox="0 0 128 128" fill="none" xmlns="http://www.w3.org/2000/svg">
<mask id="mask0_217_76" style="mask-type:alpha" maskUnits="userSpaceOnUse" x="0" y="0" width="128" height="128">
<rect width="128" height="128" fill="#D9D9D9"/>
</mask>
<g mask="url(#mask0_217_76)">
<path d="M0 96V87.6C0 83.6889 1.97867 80.5547 5.936 78.1973C9.88978 75.8436 15.0222 74.6667 21.3333 74.6667C22.4889 74.6667 23.6 74.688 24.6667 74.7307C25.7333 74.7769 26.7556 74.8889 27.7333 75.0667C26.4889 76.8444 25.5556 78.7556 24.9333 80.8C24.3111 82.8444 24 85.0222 24 87.3333V96H0ZM32 96V87.3333C32 81.5556 34.9564 76.8889 40.8693 73.3333C46.7787 69.7778 54.4889 68 64 68C73.6 68 81.3333 69.7778 87.2 73.3333C93.0667 76.8889 96 81.5556 96 87.3333V96H32ZM104 96V87.3333C104 85.0222 103.71 82.8444 103.131 80.8C102.555 78.7556 101.689 76.8444 100.533 75.0667C101.511 74.8889 102.512 74.7769 103.536 74.7307C104.556 74.688 105.6 74.6667 106.667 74.6667C113.067 74.6667 118.222 75.8436 122.133 78.1973C126.044 80.5547 128 83.6889 128 87.6V96H104ZM21.3333 69.3333C18.4 69.3333 15.8898 68.288 13.8027 66.1973C11.712 64.1102 10.6667 61.6 10.6667 58.6667C10.6667 55.6444 11.712 53.1111 13.8027 51.0667C15.8898 49.0222 18.4 48 21.3333 48C24.3556 48 26.8889 49.0222 28.9333 51.0667C30.9778 53.1111 32 55.6444 32 58.6667C32 61.6 30.9778 64.1102 28.9333 66.1973C26.8889 68.288 24.3556 69.3333 21.3333 69.3333ZM106.667 69.3333C103.733 69.3333 101.221 68.288 99.1307 66.1973C97.0436 64.1102 96 61.6 96 58.6667C96 55.6444 97.0436 53.1111 99.1307 51.0667C101.221 49.0222 103.733 48 106.667 48C109.689 48 112.222 49.0222 114.267 51.0667C116.311 53.1111 117.333 55.6444 117.333 58.6667C117.333 61.6 116.311 64.1102 114.267 66.1973C112.222 68.288 109.689 69.3333 106.667 69.3333ZM64 64C59.5556 64 55.7778 62.4444 52.6667 59.3333C49.5556 56.2222 48 52.4444 48 48C48 43.4667 49.5556 39.6658 52.6667 36.5973C55.7778 33.5324 59.5556 32 64 32C68.5333 32 72.3324 33.5324 75.3973 36.5973C78.4658 39.6658 80 43.4667 80 48C80 52.4444 78.4658 56.2222 75.3973 59.3333C72.3324 62.4444 68.5333 64 64 64Z" fill="white"/>
</g>
</svg>
