<svg width="227" height="240" viewBox="0 0 227 240" fill="none" xmlns="http://www.w3.org/2000/svg">
<g clip-path="url(#clip0_1_18)">
<path d="M93.6708 88.4607C93.6708 90.2977 93.1247 92.0934 92.1016 93.6208C91.0786 95.1481 89.6245 96.3386 87.9232 97.0415C86.2219 97.7445 84.3498 97.9284 82.5437 97.5701C80.7376 97.2117 79.0786 96.3272 77.7765 95.0282C76.4744 93.7293 75.5877 92.0744 75.2285 90.2727C74.8692 88.471 75.0536 86.6035 75.7583 84.9064C76.463 83.2093 77.6563 81.7587 79.1875 80.7382C80.7186 79.7176 82.5187 79.1729 84.3601 79.1729C86.8287 79.1754 89.1954 80.1548 90.9409 81.896C92.6864 83.6373 93.6682 85.9982 93.6708 88.4607Z" fill="white"/>
<path d="M152.469 88.4607C152.469 90.2977 151.923 92.0934 150.9 93.6208C149.877 95.1481 148.423 96.3386 146.721 97.0415C145.02 97.7445 143.148 97.9285 141.342 97.5701C139.536 97.2117 137.877 96.3272 136.575 95.0282C135.273 93.7293 134.386 92.0744 134.027 90.2727C133.667 88.471 133.852 86.6035 134.556 84.9064C135.261 83.2093 136.454 81.7587 137.986 80.7382C139.517 79.7176 141.317 79.1729 143.158 79.1729C145.628 79.1729 147.996 80.1514 149.742 81.8932C151.488 83.6351 152.469 85.9975 152.469 88.4607Z" fill="white"/>
<path d="M151.299 110.684H135.037V135.601C135.022 141.096 132.827 146.362 128.933 150.249C125.038 154.136 119.761 156.327 114.252 156.345H112.429C109.541 156.336 106.688 155.726 104.05 154.554C101.413 153.382 99.0499 151.673 97.1124 149.538L85.7739 159.934C88.9116 163.365 92.7314 166.107 96.9899 167.984C101.248 169.861 105.852 170.832 110.508 170.836H117.722C126.62 170.811 135.145 167.274 141.436 160.998C147.728 154.722 151.273 146.217 151.299 137.342V110.636V110.684Z" fill="white"/>
<path d="M19.4687 84.483L17.6651 80.1746C19.7515 79.8342 21.1652 78.9881 21.9354 77.5098C22.9103 75.5647 22.2961 73.9892 19.9855 72.8222L10.1484 67.7358L6.37541 75.0104L2.61218 72.9972L8.85178 60.9668L22.2571 67.8913C27.3657 70.5367 28.5454 74.3977 26.0106 79.2799C25.3976 80.5927 24.4879 81.7457 23.3528 82.6485C22.2177 83.5514 20.8882 84.1793 19.4687 84.483Z" fill="white"/>
<path d="M23.612 63.788C19.3906 60.4521 18.9811 54.821 22.5201 50.357C26.0591 45.893 31.626 45.0372 35.8475 48.4119C40.0689 51.7867 40.5076 57.3497 36.9686 61.8137C33.4296 66.2777 27.8335 67.1627 23.612 63.788ZM32.5814 52.4966C30.1538 50.5515 27.4728 50.96 25.8544 53.0024C24.236 55.0447 24.4602 57.7484 26.8878 59.6643C29.3154 61.5802 32.016 61.1718 33.6246 59.1392C35.2332 57.1065 35.009 54.4126 32.5814 52.4966Z" fill="white"/>
<path d="M46.3184 27.5791L52.4605 47.2441C53.9424 51.6497 52.9089 54.2366 50.4424 56.3276C49.0849 57.5076 47.3664 58.1933 45.5677 58.2727L44.5928 54.2464C45.6584 54.244 46.691 53.8767 47.5176 53.2058C48.6095 52.2332 48.8142 51.2607 48.3073 49.6073L48.2488 49.442L30.6415 40.7766L34.7362 37.3046L46.4354 43.2663L42.4187 30.7691L46.3184 27.5791Z" fill="white"/>
<path d="M79.5247 22.192L67.1138 27.6771C68.469 29.5153 70.7601 29.9821 73.2656 28.8831C74.0374 28.5784 74.7383 28.1191 75.3252 27.5337C75.9121 26.9482 76.3724 26.249 76.6779 25.4792L80.4217 27.0936C79.671 29.4958 77.7796 31.4215 74.8256 32.7247C69.1514 35.2338 63.8868 33.3179 61.7322 28.4649C59.5776 23.6119 61.7322 18.399 66.7531 16.1914C71.5693 14.0615 76.7169 15.6272 79.047 20.879C79.2128 21.2388 79.3785 21.7835 79.5247 22.192ZM65.8757 24.9443L73.9579 21.375C73.3718 20.4973 72.4936 19.8544 71.4786 19.5597C70.4635 19.265 69.3767 19.3375 68.41 19.7644C67.4433 20.1913 66.6589 20.9452 66.1952 21.893C65.7315 22.8407 65.6183 23.9214 65.8757 24.9443Z" fill="white"/>
<path d="M97.7852 0.503906L102.777 24.6134L97.9021 25.5859L97.4927 23.5727C96.9689 24.4824 96.2448 25.2616 95.375 25.8512C94.5052 26.4409 93.5125 26.8257 92.4718 26.9766C87.5093 27.9492 82.9564 25.2747 81.8255 19.7798C80.6946 14.2849 83.7753 9.99594 88.7475 8.97476C89.7147 8.724 90.725 8.68633 91.7082 8.86435C92.6914 9.04238 93.624 9.43183 94.4411 10.0057L92.6863 1.52507L97.7852 0.503906ZM95.962 16.9011C95.3381 13.8764 93.0372 12.4662 90.4927 13.0109C87.9481 13.5555 86.3589 15.7534 86.9829 18.7781C87.6068 21.8027 89.9077 23.2226 92.4913 22.6683C95.0748 22.1139 96.5957 19.9257 95.962 16.9011Z" fill="white"/>
<path d="M124.742 6.75754L124.45 24.594L119.507 24.5163V22.3961C118.792 23.1595 117.92 23.7598 116.95 24.1559C115.981 24.552 114.938 24.7347 113.891 24.6913C109.397 24.6135 106.267 22.046 106.355 16.5414L106.521 6.45605L111.727 6.54355L111.571 15.8606C111.571 18.8463 112.838 20.1981 115.139 20.237C117.44 20.2759 119.302 18.7782 119.351 15.491L119.497 6.66999L124.742 6.75754Z" fill="white"/>
<path d="M128.847 16.2002C130.026 10.9582 134.94 8.14749 140.634 9.39236C144.319 10.219 146.854 12.4559 147.458 15.5875L143.042 16.8032C142.839 15.9956 142.414 15.2608 141.814 14.6816C141.214 14.1024 140.465 13.702 139.649 13.5257C137.075 12.9422 134.657 14.2746 133.965 17.3186C133.777 17.9314 133.72 18.5768 133.797 19.213C133.875 19.8493 134.085 20.4621 134.415 21.0121C134.745 21.5621 135.187 22.0369 135.712 22.4058C136.238 22.7748 136.835 23.0296 137.465 23.1539C138.28 23.3495 139.134 23.3108 139.927 23.0423C140.721 22.7738 141.422 22.2864 141.95 21.6368L145.401 24.6614C143.451 27.1608 140.244 28.1237 136.558 27.297C130.884 26.0813 127.657 21.452 128.847 16.2002Z" fill="white"/>
<path d="M164.919 26.6947L160.785 36.0409L156.33 34.0958L157.236 32.0632C155.696 33.1524 153.629 33.1913 151.221 32.1215C147.38 30.4293 146.034 27.2588 147.321 24.4676C148.608 21.6763 151.533 20.4899 156.534 22.6976L160.307 24.3703C161.214 22.3377 160.522 20.6163 157.958 19.5076C156.267 18.7406 154.372 18.5393 152.557 18.9338L152.313 14.8685C155.021 14.4625 157.789 14.8652 160.268 16.0258C165.241 18.1655 167.112 21.7542 164.919 26.6947ZM158.319 28.7468L159.059 27.0837L155.793 25.6444C153.571 24.6718 152.508 25.1678 152.02 26.2571C151.533 27.3463 152.147 28.6787 153.824 29.4179C154.547 29.7975 155.373 29.9371 156.181 29.8165C156.99 29.6958 157.738 29.3211 158.319 28.7468Z" fill="white"/>
<path d="M174.083 43.7244C172.589 43.6838 171.142 43.1958 169.93 42.3239C166.401 39.9898 165.543 36.829 167.892 33.2889L171.968 27.1813L169.657 25.6544L171.86 22.338L174.171 23.8747L176.579 20.2471L180.918 23.1647L178.509 26.7826L182.234 29.2529L180.05 32.5304L176.326 30.06L172.25 36.1093C172.045 36.3437 171.895 36.6209 171.811 36.9205C171.727 37.2201 171.711 37.5346 171.764 37.8412C171.818 38.1478 171.939 38.4386 172.119 38.6925C172.299 38.9465 172.534 39.1571 172.806 39.309C173.428 39.731 174.17 39.9424 174.922 39.912L174.083 43.7244Z" fill="white"/>
<path d="M186.874 32.4033L190.842 35.7586L179.26 49.3743L175.292 46.019L186.874 32.4033ZM189.877 27.8906C190.148 27.5878 190.478 27.3435 190.847 27.173C191.216 27.0025 191.617 26.9094 192.023 26.8993C192.43 26.8893 192.834 26.9626 193.211 27.1147C193.589 27.2668 193.93 27.4945 194.216 27.7837C195.698 29.0383 195.912 30.7889 194.879 31.9948C194.305 32.5571 193.543 32.8877 192.74 32.9231C191.937 32.9585 191.149 32.6962 190.528 32.1866C189.907 31.677 189.497 30.9562 189.377 30.1631C189.256 29.3699 189.435 28.5605 189.877 27.8906Z" fill="white"/>
<path d="M188.308 45.0082C192.373 41.4876 197.998 42.0906 201.732 46.4282C205.466 50.7657 205.281 56.3482 201.216 59.8688C197.15 63.3894 191.544 62.7864 187.801 58.4683C184.057 54.1502 184.232 48.5289 188.308 45.0082ZM197.764 55.9008C200.095 53.8779 200.221 51.1742 198.515 49.2096C196.809 47.2451 194.089 46.9631 191.759 48.9762C189.429 50.9894 189.322 53.7223 191.028 55.6868C192.734 57.6514 195.425 57.914 197.764 55.9008Z" fill="white"/>
<path d="M213.471 78.8335L204.472 83.6963L201.986 79.135L210.292 74.6321C212.827 73.2511 213.363 71.4519 212.242 69.429C211.043 67.2408 208.84 66.3849 205.954 67.9605L198.155 72.1716L195.678 67.6103L211.394 59.0908L213.763 63.4478L211.93 64.4204C212.985 64.721 213.964 65.2402 214.804 65.944C215.644 66.6479 216.326 67.5205 216.805 68.5051C218.901 72.2786 218.267 76.2563 213.471 78.8335Z" fill="white"/>
<path d="M3.50908 141.611L1.97843 141.757L0.935303 131.273L17.6943 129.609L18.6693 139.782L17.1387 139.938L16.2807 131.331L10.3238 131.924L11.0843 139.588L9.57319 139.743L8.81272 132.07L2.58288 132.683L3.50908 141.611Z" fill="white"/>
<path d="M22.6372 152.057L5.31269 156.355L4.96167 154.945L7.3893 154.342C6.51519 154.148 5.71419 153.71 5.07919 153.08C4.4442 152.45 4.00116 151.653 3.8015 150.783C3.0313 147.68 5.00067 144.733 8.67616 143.809C12.3517 142.886 15.5007 144.588 16.2612 147.7C16.4877 148.541 16.4775 149.428 16.2315 150.263C15.9856 151.099 15.5134 151.851 14.867 152.436L22.2473 150.608L22.6372 152.057ZM11.094 153.389C13.9701 152.669 15.452 150.471 14.8768 148.166C14.3016 145.862 11.952 144.587 9.08568 145.249C6.21938 145.91 4.72772 148.166 5.30293 150.491C5.87814 152.815 8.21799 154.099 11.094 153.389Z" fill="white"/>
<path d="M22.6569 166.362L10.9577 171.157L10.402 169.815L12.5371 168.94C11.7045 168.881 10.906 168.586 10.2358 168.09C9.56554 167.594 9.05154 166.917 8.75432 166.139C7.67214 163.493 8.62758 161.081 11.9911 159.7L18.8156 156.919L19.3909 158.319L12.7516 161.033C10.2557 162.005 9.45625 163.717 10.2654 165.691C11.1624 167.86 13.3073 168.609 15.9786 167.481L22.1207 164.962L22.6569 166.362Z" fill="white"/>
<path d="M18.4159 172.032C21.6916 170.155 25.2404 170.943 26.8685 173.841C27.3412 174.598 27.5917 175.473 27.5917 176.365C27.5917 177.257 27.3412 178.131 26.8685 178.888L25.5524 178.344C25.8884 177.773 26.0655 177.124 26.0655 176.462C26.0655 175.8 25.8884 175.15 25.5524 174.58C24.324 172.46 21.7209 171.886 19.1471 173.364C16.5732 174.843 15.7738 177.371 16.9924 179.491C17.3057 180.077 17.772 180.567 18.3419 180.909C18.9118 181.252 19.5639 181.434 20.2292 181.436L20.044 182.847C19.1519 182.868 18.2714 182.641 17.5015 182.191C16.7316 181.741 16.1029 181.086 15.686 180.299C14.0384 177.342 15.1401 173.909 18.4159 172.032Z" fill="white"/>
<path d="M31.7627 189.538L25.4841 194.245L24.6164 193.088L26.1958 191.902C25.425 192.01 24.6393 191.896 23.9312 191.574C23.223 191.252 22.6219 190.734 22.1986 190.083C20.6679 188.05 20.9312 185.92 22.6763 184.607C24.2362 183.431 26.2153 183.343 28.1554 185.911L30.2905 188.751L30.9047 188.293C32.6401 186.99 32.9326 185.376 31.6749 183.752C30.8432 182.636 29.6091 181.886 28.2334 181.661L28.8476 180.357C30.5006 180.681 31.9702 181.615 32.9618 182.974C34.6972 185.288 34.3755 187.583 31.7627 189.538ZM27.6192 190.754L29.2765 189.519L27.1609 186.708C25.8448 184.967 24.6554 184.987 23.6122 185.736C22.569 186.484 22.3351 188.002 23.4172 189.431C23.8716 190.085 24.5309 190.57 25.2915 190.809C26.0521 191.049 26.8709 191.029 27.6192 190.754Z" fill="white"/>
<path d="M36.8713 201.821L37.037 203.231C36.1718 203.472 35.2562 203.466 34.3944 203.213C33.5325 202.96 32.7592 202.471 32.1624 201.801L31.1874 202.404C31.3564 202.585 31.487 202.799 31.5714 203.031C31.6558 203.264 31.6923 203.511 31.6787 203.758C31.665 204.005 31.6015 204.247 31.4919 204.469C31.3824 204.691 31.2291 204.888 31.0412 205.05C30.8232 205.259 30.5628 205.419 30.2776 205.519C29.9923 205.619 29.6889 205.657 29.3877 205.63C29.0865 205.604 28.7946 205.513 28.5316 205.364C28.2685 205.215 28.0406 205.012 27.863 204.768C27.3998 204.321 27.101 203.732 27.0148 203.095L27.9215 202.725C27.9867 203.226 28.2164 203.691 28.5746 204.048C29.1693 204.67 29.7835 204.719 30.31 204.223C30.8365 203.727 30.8073 203.153 30.1833 202.502L29.842 202.152L31.6164 201.111C29.959 198.738 30.388 195.577 32.8448 193.214C35.5747 190.598 39.1624 190.51 41.4925 192.922C42.1344 193.536 42.5914 194.316 42.812 195.176C43.0325 196.035 43.0077 196.939 42.7404 197.785L41.3268 197.571C41.5153 196.937 41.5306 196.265 41.3712 195.624C41.2118 194.983 40.8834 194.396 40.4201 193.924C38.714 192.163 36.0524 192.241 33.9172 194.284C31.7821 196.326 31.5969 198.991 33.303 200.751C33.747 201.232 34.3126 201.585 34.9403 201.773C35.5681 201.962 36.235 201.978 36.8713 201.821Z" fill="white"/>
<path d="M49.9646 206.966L45.0022 213.025L43.8811 212.111L45.129 210.584C44.4057 210.872 43.6152 210.947 42.8503 210.803C42.0853 210.658 41.3776 210.299 40.81 209.767C38.8602 208.163 38.5774 206.023 39.9716 204.331C41.2 202.823 43.1011 202.259 45.597 204.331L48.356 206.577L48.8435 205.984C50.2084 204.311 50.1109 202.707 48.4925 201.394C47.4238 200.505 46.0474 200.072 44.661 200.188L44.934 198.768C46.6182 198.682 48.2714 199.243 49.5552 200.334C51.8073 202.133 52.0413 204.438 49.9646 206.966ZM46.2404 209.135L47.5468 207.53L44.817 205.313C43.1303 203.932 41.98 204.233 41.1513 205.235C40.3226 206.237 40.459 207.744 41.8434 208.872C42.4429 209.396 43.1988 209.707 43.9939 209.758C44.789 209.809 45.5787 209.597 46.2404 209.154V209.135ZM49.0092 197.163L48.3073 196.579C49.3602 195.364 50.5886 195.033 51.466 195.753C52.3435 196.472 51.9535 198.252 52.597 198.777C53.2404 199.303 53.7864 199.011 54.4006 198.33L55.1123 198.904C54.0886 200.09 52.8504 200.421 51.973 199.701C51.0956 198.982 51.505 197.212 50.8518 196.677C50.3838 196.268 49.6527 196.443 49.0092 197.163Z" fill="white"/>
<path d="M51.8464 210.273C53.7962 207.102 57.3157 206.12 60.104 207.861C62.8923 209.602 63.5163 213.132 61.5274 216.312C59.5386 219.492 56.0678 220.494 53.2795 218.753C50.4912 217.012 49.8575 213.453 51.8464 210.273ZM60.2308 215.495C61.8004 212.996 61.3422 210.389 59.3143 209.125C57.2865 207.861 54.7127 208.58 53.1528 211.07C51.5929 213.56 52.0609 216.186 54.1277 217.45C56.1946 218.714 58.6611 218.005 60.2308 215.495Z" fill="white"/>
<path d="M63.1946 222.77C62.9604 223.188 62.6571 223.562 62.2976 223.879L59.9773 226.417L59.0706 225.95L61.3032 223.179C61.108 223.032 60.9592 222.832 60.8745 222.603C60.7897 222.374 60.7726 222.126 60.8252 221.888C60.8777 221.65 60.9977 221.431 61.1709 221.259C61.3441 221.087 61.5633 220.968 61.8023 220.917C62.0412 220.865 62.29 220.883 62.5191 220.968C62.7482 221.053 62.948 221.203 63.0946 221.398C63.2412 221.593 63.3286 221.826 63.3463 222.069C63.364 222.313 63.3113 222.556 63.1946 222.77Z" fill="white"/>
<path d="M87.5093 214.571L81.7669 231.435L80.3923 230.969L81.1917 228.605C80.556 229.235 79.7538 229.672 78.8787 229.865C78.0035 230.058 77.0915 229.999 76.2488 229.694C73.2168 228.722 71.7934 225.425 73.0218 221.817C74.2502 218.209 77.3505 216.507 80.3826 217.538C81.213 217.804 81.9546 218.291 82.5269 218.948C83.0992 219.605 83.4803 220.405 83.629 221.262L86.0664 214.085L87.5093 214.571ZM82.3811 224.978C83.3561 222.186 82.2739 219.745 80.0315 218.987C77.7892 218.228 75.4298 219.512 74.4842 222.303C73.5385 225.094 74.5915 227.545 76.8533 228.304C79.1151 229.062 81.4355 227.779 82.3811 224.978Z" fill="white"/>
<path d="M89.7614 220.378L91.2336 220.718L88.4062 233.021L86.9341 232.681L89.7614 220.378ZM90.3268 216.42C90.3517 216.267 90.4065 216.121 90.4881 215.989C90.5697 215.858 90.6765 215.744 90.8023 215.653C90.9282 215.563 91.0707 215.498 91.2216 215.463C91.3725 215.427 91.529 215.422 91.682 215.447C91.9767 215.537 92.2262 215.735 92.3802 216.002C92.5343 216.268 92.5815 216.583 92.5123 216.882C92.443 217.182 92.2625 217.444 92.0072 217.617C91.7518 217.789 91.4406 217.858 91.136 217.81C90.8535 217.72 90.6159 217.527 90.4711 217.269C90.3263 217.01 90.2852 216.707 90.3561 216.42H90.3268Z" fill="white"/>
<path d="M102.884 227.546L101.782 235.326L100.34 235.122L100.622 233.176C100.151 233.795 99.5129 234.267 98.7826 234.538C98.0524 234.808 97.2601 234.866 96.4983 234.703C93.9829 234.344 92.6473 232.651 92.9593 230.492C93.2322 228.547 94.5582 227.108 97.756 227.575L101.285 228.071L101.392 227.312C101.695 225.173 100.778 223.86 98.7114 223.558C97.3345 223.371 95.9382 223.719 94.8117 224.531L94.3144 223.179C95.7092 222.239 97.4101 221.863 99.0721 222.128C101.938 222.469 103.342 224.317 102.884 227.546ZM100.817 231.329L101.1 229.286L97.6195 228.79C95.4551 228.489 94.6264 229.335 94.4412 230.628C94.2364 232.078 95.1431 233.128 96.9175 233.371C97.7024 233.508 98.5106 233.382 99.2161 233.013C99.9216 232.643 100.485 232.051 100.817 231.329ZM99.4718 220.251L97.9997 220.047L101.314 217.499L103.323 217.791L99.4718 220.251Z" fill="white"/>
<path d="M107.739 217.839L109.25 217.917L108.275 235.714L106.754 235.627L107.739 217.839Z" fill="white"/>
<path d="M112.097 229.656C111.961 225.911 114.291 223.159 117.576 223.033C120.862 222.906 123.367 225.484 123.504 229.228C123.64 232.972 121.33 235.754 118.044 235.87C114.759 235.987 112.234 233.39 112.097 229.656ZM121.973 229.286C121.866 226.369 120.023 224.424 117.635 224.521C115.246 224.618 113.521 226.641 113.628 229.597C113.735 232.554 115.578 234.46 117.996 234.363C120.413 234.266 122.081 232.243 121.973 229.286Z" fill="white"/>
<path d="M136.315 220.825L138.206 231.766C138.937 236.046 137.406 238.312 133.741 238.934C132.804 239.131 131.838 239.142 130.898 238.965C129.958 238.788 129.062 238.427 128.262 237.903L128.798 236.493C130.155 237.416 131.823 237.765 133.438 237.465C136.236 236.979 137.28 235.316 136.743 232.243L136.47 230.658C136.168 231.486 135.645 232.217 134.958 232.772C134.271 233.327 133.446 233.686 132.571 233.809C129.412 234.353 126.585 232.272 125.97 228.703C125.356 225.134 127.335 222.274 130.484 221.739C131.368 221.562 132.283 221.629 133.13 221.934C133.978 222.239 134.725 222.771 135.291 223.47L134.881 221.078L136.315 220.825ZM135.886 226.991C135.418 224.297 133.341 222.751 130.894 223.169C128.447 223.587 126.994 225.737 127.491 228.43C127.989 231.124 130.026 232.7 132.464 232.321C134.901 231.941 136.353 229.714 135.886 227.011V226.991Z" fill="white"/>
<path d="M140.994 226.232C139.854 222.663 141.374 219.424 144.504 218.393C147.633 217.362 150.743 219.22 151.874 222.799C153.005 226.378 151.523 229.607 148.394 230.647C145.264 231.688 142.125 229.801 140.994 226.232ZM150.412 223.256C149.525 220.445 147.234 219.094 144.952 219.813C142.671 220.533 141.56 222.955 142.457 225.765C143.354 228.576 145.654 229.928 147.936 229.208C150.217 228.488 151.309 226.076 150.412 223.256Z" fill="white"/>
<path d="M169.433 214.912L161.136 219.318C161.405 219.831 161.773 220.286 162.22 220.656C162.667 221.026 163.183 221.303 163.739 221.472C164.294 221.64 164.878 221.696 165.456 221.637C166.033 221.578 166.593 221.404 167.103 221.127C167.695 220.828 168.209 220.394 168.602 219.86C168.995 219.326 169.256 218.707 169.364 218.053L170.642 218.627C170.511 219.456 170.183 220.241 169.686 220.918C169.19 221.595 168.538 222.143 167.785 222.517C164.695 224.161 161.312 222.906 159.557 219.6C157.802 216.293 158.582 212.85 161.38 211.362C164.178 209.874 167.424 211.129 169.179 214.474C169.267 214.562 169.325 214.747 169.433 214.912ZM160.541 218.19L167.571 214.465C166.235 212.364 164.012 211.547 162.072 212.617C160.132 213.687 159.576 215.963 160.551 218.19H160.541Z" fill="white"/>
<path d="M177.885 193.856L189.048 207.754L187.918 208.659L186.358 206.714C186.546 207.588 186.482 208.498 186.173 209.338C185.864 210.178 185.323 210.914 184.613 211.46C182.117 213.463 178.607 212.909 176.209 209.933C173.81 206.957 174.054 203.436 176.56 201.442C177.229 200.891 178.037 200.532 178.896 200.405C179.756 200.279 180.633 200.388 181.434 200.723L176.677 194.81L177.885 193.856ZM183.93 203.757C182.078 201.462 179.436 201.044 177.593 202.522C175.75 204 175.555 206.665 177.408 208.97C179.26 211.275 181.892 211.693 183.764 210.195C185.636 208.697 185.782 206.062 183.95 203.757H183.93Z" fill="white"/>
<path d="M180.947 192.485C180.73 192.268 180.608 191.975 180.608 191.668C180.608 191.362 180.73 191.068 180.947 190.851C181.057 190.748 181.186 190.668 181.328 190.615C181.469 190.562 181.62 190.539 181.77 190.545C181.921 190.551 182.069 190.588 182.206 190.652C182.342 190.716 182.464 190.807 182.565 190.92C182.682 191.022 182.777 191.147 182.845 191.287C182.912 191.427 182.951 191.579 182.958 191.735C182.965 191.89 182.941 192.045 182.887 192.191C182.833 192.336 182.75 192.469 182.643 192.583C182.527 192.691 182.391 192.775 182.241 192.83C182.092 192.884 181.933 192.907 181.774 192.898C181.615 192.889 181.46 192.848 181.318 192.777C181.176 192.706 181.049 192.607 180.947 192.485ZM183.989 195.092L185.071 194.032L193.923 203.057L192.841 204.117L183.989 195.092Z" fill="white"/>
<path d="M194.07 184.062L200.407 196.074L199.432 197.26L186.592 192.767L187.625 191.58L198.544 195.471L193.143 185.239L194.07 184.062Z" fill="white"/>
<path d="M206.11 178.519L200.855 186.299C201.333 186.628 201.872 186.858 202.441 186.976C203.009 187.095 203.596 187.099 204.166 186.988C204.736 186.878 205.278 186.655 205.761 186.333C206.244 186.011 206.657 185.596 206.978 185.113C207.363 184.572 207.613 183.948 207.708 183.292C207.803 182.635 207.74 181.966 207.524 181.339L208.927 181.252C209.195 182.041 209.271 182.882 209.147 183.706C209.023 184.53 208.704 185.312 208.216 185.988C206.266 188.906 202.688 189.353 199.568 187.262C196.448 185.171 195.551 181.748 197.316 179.141C199.081 176.535 202.532 176.107 205.691 178.227L206.11 178.519ZM199.802 185.57L204.258 178.986C202.093 177.77 199.763 178.12 198.535 179.958C197.306 181.796 197.852 184.033 199.802 185.57Z" fill="white"/>
<path d="M204.316 167.111L205.778 167.889C205.72 168.006 205.642 168.103 205.593 168.201C204.492 170.272 205.31 172.315 207.953 173.705L213.656 176.72L212.944 178.053L201.752 172.198L202.434 170.914L204.618 172.071C204.04 171.387 203.698 170.535 203.644 169.641C203.589 168.748 203.825 167.861 204.316 167.111Z" fill="white"/>
<path d="M215.265 170.505L214.29 169.367C215.573 168.681 216.576 167.57 217.127 166.226C217.946 164.281 217.517 163.143 216.366 162.666C213.315 161.402 212.944 169.105 208.313 167.199C206.363 166.411 205.584 164.368 206.675 161.733C207.195 160.423 208.103 159.303 209.278 158.523L210.253 159.652C209.224 160.252 208.428 161.181 207.992 162.287C207.212 164.155 207.699 165.322 208.811 165.779C211.969 167.082 212.369 159.389 216.863 161.247C218.882 162.083 219.544 164.164 218.423 166.887C217.841 168.433 216.719 169.717 215.265 170.505Z" fill="white"/>
<path d="M207.543 153.281L207.289 154.156C205.749 153.679 204.959 152.687 205.261 151.598C205.622 150.324 207.377 150.159 207.601 149.361C207.777 148.739 207.328 148.175 206.461 147.883L206.714 147.008C208.206 147.475 209.005 148.467 208.664 149.556C208.303 150.83 206.558 150.976 206.324 151.793C206.188 152.415 206.626 152.979 207.543 153.281ZM216.171 148.496L223.717 150.626L223.327 152.016L221.426 151.482C221.98 152.028 222.366 152.721 222.538 153.479C222.711 154.237 222.663 155.029 222.401 155.761C221.709 158.202 219.856 159.291 217.741 158.678C215.869 158.153 214.592 156.636 215.469 153.543L216.444 150.12L215.703 149.916C213.617 149.322 212.183 150.052 211.618 152.065C211.227 153.398 211.377 154.83 212.037 156.053L210.624 156.364C209.874 154.853 209.731 153.113 210.224 151.501C210.994 148.749 213.022 147.611 216.171 148.496ZM219.651 151.054L217.702 150.49L216.727 153.874C216.142 155.965 216.873 156.899 218.121 157.249C219.534 157.648 220.704 156.889 221.192 155.168C221.426 154.408 221.402 153.593 221.124 152.849C220.845 152.105 220.327 151.474 219.651 151.054Z" fill="white"/>
<path d="M218.462 145.443C214.748 144.908 212.447 142.127 212.915 138.878C213.383 135.63 216.366 133.636 220.081 134.171C223.795 134.706 226.125 137.459 225.657 140.707C225.189 143.955 222.177 145.939 218.462 145.443ZM219.866 135.718C216.941 135.3 214.728 136.768 214.387 139.131C214.046 141.495 215.752 143.547 218.677 143.994C221.602 144.441 223.815 142.924 224.156 140.561C224.497 138.198 222.801 136.107 219.866 135.679V135.718Z" fill="white"/>
<path d="M209.668 130.377L209.746 128.588L221.514 129.473L221.455 130.64L209.668 130.377ZM225.355 131.35C225.199 131.351 225.044 131.321 224.9 131.262C224.755 131.203 224.624 131.115 224.514 131.005C224.404 130.894 224.318 130.763 224.259 130.618C224.201 130.474 224.173 130.319 224.175 130.163C224.187 130.009 224.23 129.858 224.302 129.721C224.374 129.584 224.473 129.462 224.594 129.364C224.714 129.266 224.853 129.193 225.002 129.15C225.151 129.107 225.308 129.094 225.462 129.113C225.617 129.11 225.772 129.139 225.916 129.196C226.06 129.254 226.191 129.339 226.302 129.448C226.413 129.557 226.501 129.686 226.561 129.829C226.621 129.972 226.651 130.125 226.651 130.28C226.637 130.435 226.592 130.586 226.519 130.724C226.445 130.862 226.346 130.984 226.225 131.083C226.105 131.182 225.966 131.257 225.817 131.303C225.667 131.349 225.51 131.365 225.355 131.35Z" fill="white"/>
<path d="M226.662 107.388C226.66 108.235 226.406 109.064 225.932 109.768C225.459 110.472 224.787 111.02 224.001 111.343C223.215 111.666 222.351 111.75 221.517 111.583C220.684 111.417 219.919 111.007 219.319 110.407C218.718 109.807 218.31 109.043 218.145 108.211C217.98 107.379 218.065 106.517 218.391 105.734C218.717 104.951 219.268 104.282 219.975 103.811C220.681 103.34 221.512 103.089 222.362 103.089C223.503 103.091 224.597 103.545 225.403 104.351C226.209 105.157 226.662 106.249 226.662 107.388Z" fill="white"/>
<path d="M9.4369 107.388C9.43497 108.235 9.1812 109.064 8.7076 109.768C8.234 110.472 7.56179 111.02 6.776 111.343C5.99021 111.666 5.12604 111.75 4.29267 111.583C3.4593 111.417 2.69415 111.007 2.09384 110.407C1.49352 109.807 1.08503 109.043 0.91992 108.211C0.754814 107.379 0.840512 106.517 1.16621 105.734C1.49191 104.951 2.04299 104.282 2.74982 103.811C3.45665 103.34 4.28753 103.089 5.13747 103.089C5.7029 103.089 6.26278 103.2 6.78505 103.416C7.30732 103.632 7.78167 103.949 8.18104 104.348C8.58041 104.748 8.89692 105.222 9.11241 105.743C9.32791 106.265 9.43818 106.823 9.4369 107.388Z" fill="white"/>
</g>
<defs>
<clipPath id="clip0_1_18">
<rect width="225.804" height="238.586" fill="white" transform="translate(0.8573 0.503906)"/>
</clipPath>
</defs>
</svg>
