<svg width="128" height="128" viewBox="0 0 128 128" fill="none" xmlns="http://www.w3.org/2000/svg">
<mask id="mask0_217_70" style="mask-type:alpha" maskUnits="userSpaceOnUse" x="0" y="0" width="128" height="128">
<rect width="128" height="128" fill="#D9D9D9"/>
</mask>
<g mask="url(#mask0_217_70)">
<path d="M64 120C57.6 113.956 50.2667 109.333 42 106.133C33.7333 102.933 25.0667 101.333 16 101.333V42.6668C24.9778 42.6668 33.6 44.2882 41.8667 47.5308C50.1333 50.777 57.5111 55.4668 64 61.6002C70.4889 55.4668 77.8667 50.777 86.1333 47.5308C94.4 44.2882 103.022 42.6668 112 42.6668V101.333C102.844 101.333 94.1565 102.933 85.936 106.133C77.712 109.333 70.4 113.956 64 120ZM64 48.0002C58.1333 48.0002 53.1111 45.9113 48.9333 41.7335C44.7556 37.5557 42.6667 32.5335 42.6667 26.6668C42.6667 20.8002 44.7556 15.7779 48.9333 11.6002C53.1111 7.42238 58.1333 5.3335 64 5.3335C69.8667 5.3335 74.8889 7.42238 79.0667 11.6002C83.2444 15.7779 85.3333 20.8002 85.3333 26.6668C85.3333 32.5335 83.2444 37.5557 79.0667 41.7335C74.8889 45.9113 69.8667 48.0002 64 48.0002Z" fill="white"/>
</g>
</svg>
