<svg width="84" height="25" viewBox="0 0 84 25" fill="none" xmlns="http://www.w3.org/2000/svg">
<path d="M39.5606 9.56865C39.5606 15.6563 37.3306 16.8901 30.7323 16.8901H26.9955V24.2658C26.9955 24.6576 26.9058 24.7472 26.5432 24.7472H22.7168C22.3562 24.7472 22.2645 24.6576 22.2645 24.2658V2.57854C22.2645 2.24716 22.3541 2.18672 22.7168 2.15755C25.3678 1.91579 28.2605 1.82617 30.7323 1.82617C37.3306 1.82617 39.5606 3.54348 39.5606 9.56865ZM26.9955 5.95271V13.245H30.2488C33.8334 13.245 34.7692 12.7636 34.7692 9.68953C34.7692 6.61546 33.8355 5.95271 30.2488 5.95271H26.9955Z" fill="#4B0C8C"/>
<path d="M50.575 8.05696C50.9064 8.14658 51.0565 8.26745 51.0565 8.65927V11.131C51.0565 11.4332 50.8751 11.5833 50.5438 11.5833H47.7115C46.1442 11.5833 45.6023 11.825 45.6023 13.1193V24.2672C45.6023 24.5986 45.4523 24.7486 45.1501 24.7486H41.5654C41.2632 24.7486 41.1132 24.5986 41.1132 24.2672V11.973C41.1132 8.17575 43.8246 7.72559 46.5673 7.72559C47.4405 7.72559 49.5205 7.8152 50.575 8.05696Z" fill="#4B0C8C"/>
<path d="M67.4772 16.1627C67.4772 23.0319 66.0621 24.7493 59.7952 24.7493C53.5283 24.7493 52.1111 23.0319 52.1111 16.1627C52.1111 9.29348 53.5575 7.57617 59.7952 7.57617C66.033 7.57617 67.4772 9.26222 67.4772 16.1627ZM56.6003 16.1627C56.6003 19.96 57.0525 20.8936 59.7952 20.8936C62.5379 20.8936 63.0193 19.96 63.0193 16.1627C63.0193 12.3655 62.5671 11.4318 59.7952 11.4318C57.0233 11.4318 56.6003 12.3655 56.6003 16.1627Z" fill="#4B0C8C"/>
<path d="M82.4601 7.87598C82.7915 7.87598 82.9728 8.02603 82.9728 8.32823V10.3769C82.9728 10.6187 82.8811 10.7687 82.7623 10.95L75.3512 20.8933H82.854C83.1854 20.8933 83.3667 21.0434 83.3667 21.3456V24.2675C83.3667 24.5989 83.1854 24.7489 82.854 24.7489H69.4156C69.0551 24.7489 68.8738 24.5989 68.8738 24.2675V22.3084C68.8738 22.098 68.9342 21.9458 69.0843 21.7353L76.7371 11.642H69.747C69.3844 11.642 69.2343 11.4919 69.2343 11.1897V8.32823C69.2343 8.02603 69.3844 7.87598 69.747 7.87598H82.4622H82.4601Z" fill="#4B0C8C"/>
<path d="M9.48907 0.0754455L15.5809 3.59343C15.954 3.80809 15.954 4.34787 15.5809 4.56254L9.48907 8.08052C9.11601 8.29518 8.64917 8.02633 8.64917 7.59492V0.561044C8.64917 0.129632 9.11601 -0.139218 9.48907 0.0754455Z" fill="#4B0C8C"/>
<path d="M7.29439 16.457H0.760699C0.450167 16.457 0.200073 16.2069 0.200073 15.8964V9.3648C0.200073 8.86462 0.804466 8.61452 1.15668 8.96882L7.68829 15.5004C8.0405 15.8526 7.79249 16.457 7.29231 16.457" fill="#EE4423"/>
<path d="M7.29439 24.7497H0.760699C0.452251 24.7497 0.200073 24.4996 0.200073 24.189V17.6554C0.200073 17.3469 0.450167 17.0947 0.760699 17.0947H7.29439C7.60284 17.0947 7.85502 17.3448 7.85502 17.6554V24.189C7.85502 24.4975 7.60492 24.7497 7.29439 24.7497Z" fill="#EE4423"/>
<path d="M4.02859 8.10796C1.80276 8.10796 0 6.30312 0 4.07937C0 1.85562 1.80276 0.0507812 4.02859 0.0507812C6.25442 0.0507812 8.05718 1.85354 8.05718 4.07937C8.05718 6.3052 6.25442 8.10796 4.02859 8.10796Z" fill="#EE4423"/>
<path d="M9.09694 16.4566C12.8546 16.1648 15.8557 13.1658 16.1475 9.40602C16.1725 9.0809 15.912 8.80371 15.5869 8.80371H9.05526C8.74681 8.80371 8.49463 9.0538 8.49463 9.36434V15.8959C8.49463 16.2231 8.77182 16.4816 9.09694 16.4566Z" fill="#EE4423"/>
</svg>
