<svg width="116" height="62" viewBox="0 0 116 62" fill="none" xmlns="http://www.w3.org/2000/svg">
<g clip-path="url(#clip0_1_77)">
<path d="M44.4104 30.2996C44.4104 20.8734 51.4976 14.2148 61.1841 14.2148C70.9896 14.2148 78.0184 20.8734 78.0184 30.2996C78.0184 39.7258 70.9896 46.4427 61.1841 46.4427C51.4976 46.4427 44.4104 39.7258 44.4104 30.2996ZM70.576 30.2996C70.576 24.2912 66.5601 20.4607 61.1841 20.4607C55.8687 20.4607 51.8528 24.2852 51.8528 30.2996C51.8528 36.314 55.8687 40.1384 61.1841 40.1384C66.5601 40.1384 70.576 36.314 70.576 30.2996Z" fill="#EE4423"/>
<path d="M115.588 15.9199V39.3798C115.588 49.5709 109.386 54.9935 99.5809 54.9935C93.6157 54.9935 88.7704 53.2846 85.4044 50.3961L88.5343 44.8588C91.4887 47.391 95.3855 48.7476 99.4034 48.7476C105.427 48.7476 108.081 45.8612 108.081 39.734V37.8963C105.776 40.3117 102.469 41.5496 98.3338 41.5496C89.8864 41.5496 84.7485 36.3645 84.7485 27.4093V15.9199H92.191V27.1154C92.191 32.3589 94.9072 35.2454 99.7505 35.2454C104.832 35.2454 108.081 32.1818 108.081 26.8195V15.9199H115.588Z" fill="#EE4423"/>
<path d="M8.41917 58.6127H2.67995C2.89184 59.5568 3.68897 60.1345 4.85538 60.1345C5.20654 60.1485 5.55688 60.0907 5.88483 59.9647C6.21278 59.8387 6.51141 59.6472 6.76239 59.4018L7.93487 60.6699C7.22856 61.475 6.1691 61.8957 4.79887 61.8957C2.17545 61.8957 0.462158 60.2472 0.462158 57.9928C0.462158 55.7384 2.19969 54.0898 4.51637 54.0898C6.74829 54.0898 8.47164 55.5834 8.47164 58.021C8.46155 58.19 8.4333 58.4296 8.41917 58.6127ZM2.64162 57.3305H6.38505C6.32703 56.8832 6.10371 56.4735 5.75885 56.1816C5.41399 55.8897 4.9724 55.7367 4.52041 55.7525C4.06511 55.7293 3.61796 55.8793 3.26925 56.1722C2.92053 56.4651 2.69623 56.8791 2.64162 57.3305Z" fill="#EE4423"/>
<path d="M18.2933 51.3281V61.7829H16.1885V60.9174C15.6375 61.5796 14.8323 61.9037 13.8153 61.9037C11.6681 61.9037 10.0154 60.382 10.0154 58.0008C10.0154 55.6195 11.6681 54.0978 13.8153 54.0978C14.7476 54.0978 15.5387 54.3937 16.0896 55.0137V51.3281H18.2933ZM16.1319 57.9927C16.1319 56.6823 15.2844 55.8933 14.1967 55.8933C13.109 55.8933 12.2473 56.6823 12.2473 57.9927C12.2473 59.3031 13.0949 60.0921 14.1967 60.0921C15.2985 60.0921 16.1319 59.3071 16.1319 57.9927Z" fill="#EE4423"/>
<path d="M28.6054 54.2021V61.7826H26.5148V60.8808C26.2174 61.2081 25.8526 61.4674 25.4455 61.6411C25.0383 61.8148 24.5984 61.8988 24.1557 61.8872C22.2487 61.8872 20.9067 60.8164 20.9067 58.4775V54.2021H23.1104V58.1614C23.1104 59.4295 23.6755 59.9931 24.6502 59.9931C25.6592 59.9931 26.4018 59.345 26.4018 57.9501V54.2021H28.6054Z" fill="#EE4423"/>
<path d="M30.7122 57.9928C30.7122 55.7102 32.4779 54.0898 34.95 54.0898C36.5462 54.0898 37.8035 54.7803 38.3544 56.0202L36.6451 56.936C36.4864 56.6203 36.2421 56.3552 35.94 56.1709C35.6379 55.9866 35.29 55.8905 34.9359 55.8934C33.8199 55.8934 32.9441 56.6683 32.9441 57.9928C32.9441 59.3172 33.8199 60.0922 34.9359 60.0922C35.2906 60.0982 35.6398 60.0033 35.9424 59.8187C36.2451 59.634 36.4889 59.3672 36.6451 59.0495L38.3544 59.9795C37.8035 61.1872 36.5382 61.8957 34.95 61.8957C32.4779 61.8957 30.7122 60.2754 30.7122 57.9928Z" fill="#EE4423"/>
<path d="M46.9714 57.4574V61.783H44.909V60.839C44.5054 61.5294 43.6982 61.8957 42.5923 61.8957C40.8124 61.8957 39.7529 60.9094 39.7529 59.599C39.7529 58.2887 40.6994 57.3305 43.016 57.3305H44.7677C44.7677 56.3865 44.2026 55.837 43.016 55.837C42.2292 55.8306 41.4613 56.0777 40.8265 56.5415L40.0355 55.0057C40.8689 54.4139 42.0979 54.0898 43.3127 54.0898C45.6294 54.0898 46.9714 55.1607 46.9714 57.4574ZM44.7677 59.3877V58.6127H43.2562C42.225 58.6127 41.9001 58.9932 41.9001 59.5004C41.9001 60.0499 42.3663 60.4163 43.1432 60.4163C43.8778 60.4163 44.5134 60.0781 44.7677 59.3877Z" fill="#EE4423"/>
<path d="M54.4864 61.4162C53.9503 61.7521 53.3251 61.919 52.6924 61.8952C50.8984 61.8952 49.8531 60.9794 49.8531 59.1759V56.062H48.6907V54.3712H49.8632V52.5254H52.0668V54.3712H53.9597V56.062H52.0668V59.1477C52.0668 59.7958 52.42 60.1541 53.0132 60.1541C53.3326 60.1581 53.6447 60.0592 53.9032 59.8723L54.4864 61.4162Z" fill="#EE4423"/>
<path d="M56.0686 51.9192C56.0686 51.2288 56.6195 50.6934 57.4388 50.6934C58.2582 50.6934 58.809 51.2006 58.809 51.8769C58.809 52.6096 58.2582 53.145 57.4388 53.145C56.6195 53.145 56.0686 52.6096 56.0686 51.9192ZM56.337 54.2018H58.5407V61.7822H56.337V54.2018Z" fill="#EE4423"/>
<path d="M60.6454 57.9928C60.6454 55.7102 62.4111 54.0898 64.8267 54.0898C67.2423 54.0898 68.9939 55.7001 68.9939 57.9928C68.9939 60.2854 67.2423 61.8957 64.8267 61.8957C62.4111 61.8957 60.6454 60.2754 60.6454 57.9928ZM66.762 57.9928C66.762 56.6824 65.9285 55.8934 64.8267 55.8934C63.7249 55.8934 62.8773 56.6824 62.8773 57.9928C62.8773 59.3031 63.7249 60.0922 64.8267 60.0922C65.9285 60.0922 66.762 59.3072 66.762 57.9928Z" fill="#EE4423"/>
<path d="M78.8559 57.4425V61.7822H76.6522V57.7806C76.6522 56.5548 76.0872 55.9912 75.1125 55.9912C74.053 55.9912 73.2962 56.6393 73.2962 58.0342V61.7822H71.0906V54.2018H73.1953V55.0894C73.7886 54.4413 74.6786 54.083 75.7098 54.083C77.4998 54.089 78.8559 55.1317 78.8559 57.4425Z" fill="#EE4423"/>
<path d="M9.40998 4.69197C9.41024 5.30907 9.28851 5.92017 9.05175 6.4903C8.81499 7.06042 8.46784 7.57839 8.03018 8.01456C7.59252 8.45073 7.07294 8.79654 6.50115 9.0322C5.92936 9.26787 5.31658 9.38876 4.6979 9.38797C3.45014 9.38744 2.25369 8.89266 1.37158 8.01242C0.489464 7.13219 -0.0061032 5.93856 -0.00610308 4.69398C-0.00636816 4.07766 0.115106 3.46732 0.351385 2.89783C0.587664 2.32834 0.934152 1.81086 1.37098 1.37496C1.80782 0.939054 2.32646 0.593268 2.8973 0.357349C3.46815 0.121429 4.07999 -5.67149e-08 4.6979 0C5.94566 -1.14428e-07 7.14232 0.494267 8.02481 1.37413C8.9073 2.25398 9.40338 3.4474 9.40392 4.69197" fill="#EE4423"/>
<path d="M39.1252 4.69197C39.1254 5.30839 39.0039 5.91883 38.7677 6.48844C38.5314 7.05804 38.185 7.57565 37.7482 8.01171C37.3114 8.44777 36.7928 8.79375 36.2219 9.02989C35.651 9.26603 35.0392 9.38771 34.4212 9.38797C33.8034 9.38744 33.1918 9.26556 32.6213 9.02928C32.0508 8.79299 31.5325 8.44694 31.0961 8.01088C30.6597 7.57481 30.3136 7.05728 30.0777 6.48782C29.8418 5.91836 29.7207 5.30813 29.7212 4.69197C29.7212 3.44758 30.2168 2.25416 31.099 1.37425C31.9811 0.494333 33.1776 0 34.4252 0C35.6728 0 36.8692 0.494333 37.7514 1.37425C38.6336 2.25416 39.1292 3.44758 39.1292 4.69197" fill="#EE4423"/>
<path d="M38.5339 15.9192H30.3267V28.5096C30.3187 31.2865 29.2094 33.9475 27.2409 35.9113C25.2725 37.875 22.6049 38.9821 19.8209 38.9906H18.9007C17.4424 38.9889 16.0005 38.6836 14.6672 38.0944C13.3339 37.5052 12.1386 36.645 11.1576 35.5687L5.43042 40.8263C7.01609 42.5599 8.94654 43.945 11.0986 44.8932C13.2507 45.8414 15.5773 46.3319 17.93 46.3335H21.5745C26.0708 46.3207 30.3794 44.5336 33.5589 41.3626C36.7385 38.1915 38.5307 33.8942 38.544 29.4094V15.9111L38.5339 15.9192Z" fill="#EE4423"/>
</g>
<defs>
<clipPath id="clip0_1_77">
<rect width="115.588" height="61.8954" fill="white"/>
</clipPath>
</defs>
</svg>
